<svg width="131" height="142" viewBox="0 0 131 142" fill="none" xmlns="http://www.w3.org/2000/svg">
<path d="M79.8476 121.489H0.567108V11.0446H58.4113L79.8476 121.489Z" fill="#F5C44B"/>
<path d="M79.8476 122.052H0.5671C0.22684 122.052 0 121.827 0 121.489V11.0444C0 10.7064 0.22684 10.481 0.5671 10.481H58.4113C58.6381 10.481 58.8649 10.7064 58.9784 10.9318L80.4147 121.376C80.4147 121.489 80.4147 121.714 80.3013 121.827C80.1879 121.94 79.961 122.052 79.8476 122.052ZM1.1342 120.925H79.1671L57.9576 11.6079H1.1342V120.925Z" fill="#1D1D1B"/>
<path d="M91.1896 111.008H11.9091V0.563477H62.1541L62.2675 18.5952L91.1896 18.3698V111.008Z" fill="white"/>
<path d="M91.1896 111.571H11.9091C11.5688 111.571 11.342 111.346 11.342 111.008V0.563492C11.342 0.225397 11.5688 0 11.9091 0H62.1541C62.4944 0 62.7212 0.225397 62.7212 0.563492L62.8346 18.0317L91.1896 17.8063C91.4164 17.8063 91.5299 17.919 91.6433 17.919C91.7567 18.0317 91.7567 18.1444 91.7567 18.3698V111.008C91.7567 111.346 91.5299 111.571 91.1896 111.571ZM12.4762 110.444H90.6225V18.9333L62.2675 19.1587C62.1541 19.1587 61.9273 19.046 61.8138 19.046C61.7004 19.046 61.7004 18.8206 61.7004 18.5952L61.587 1.12698H12.4762V110.444Z" fill="#1D1D1B"/>
<path d="M91.1896 16.0032H64.5359V0.563477L91.1896 16.0032Z" fill="#F5C44B"/>
<path d="M91.1896 16.5667H64.5359C64.1957 16.5667 63.9688 16.3413 63.9688 16.0032V0.563516C63.9688 0.338119 64.0822 0.22542 64.3091 0.112722C64.4225 2.36407e-05 64.6493 2.36407e-05 64.8762 0.112722L91.5298 15.5524C91.7567 15.6651 91.8701 15.8905 91.7567 16.2286C91.6433 16.3413 91.4164 16.5667 91.1896 16.5667ZM65.103 15.4397H89.0346L65.103 1.5778V15.4397Z" fill="black"/>
<path d="M30.1697 17.1301C30.1697 18.5952 29.716 19.7222 28.8087 20.6238C27.9013 21.5253 26.5403 21.9761 24.9524 21.9761C23.3645 21.9761 22.0035 21.4126 20.9827 20.2857C19.9619 19.1587 19.3948 17.6936 19.3948 15.8904V13.2984C19.3948 11.4952 19.9619 10.0301 20.9827 8.90312C22.0035 7.77614 23.3645 7.21265 24.9524 7.21265C26.5403 7.21265 27.9013 7.66344 28.9221 8.56503C29.9429 9.46661 30.3965 10.5936 30.2831 12.0587V12.1714H28.355C28.355 11.1571 28.0147 10.3682 27.4476 9.80471C26.8805 9.24122 25.9732 8.90312 24.9524 8.90312C23.8182 8.90312 23.0242 9.35392 22.3437 10.2555C21.6632 11.1571 21.3229 12.1714 21.3229 13.5238V15.7777C21.3229 17.1301 21.6632 18.1444 22.3437 19.046C23.0242 19.9476 23.8182 20.3984 24.9524 20.3984C26.0866 20.3984 26.8805 20.0603 27.4476 19.4968C28.0147 18.9333 28.355 18.1444 28.355 17.1301H30.1697Z" fill="black"/>
<path d="M34.7065 16.0032V21.7508H32.7784V7.32544H38.3359C39.9238 7.32544 41.058 7.77623 41.9654 8.56512C42.8727 9.35401 43.213 10.3683 43.213 11.7207C43.213 13.0731 42.7593 14.0873 41.9654 14.8762C41.1714 15.6651 39.9238 16.0032 38.3359 16.0032H34.7065ZM34.7065 14.4254H38.3359C39.3567 14.4254 40.0372 14.2 40.4909 13.6366C40.9446 13.0731 41.1714 12.5096 41.1714 11.608C41.1714 10.7064 40.9446 10.1429 40.4909 9.57941C40.0372 9.01592 39.2433 8.79052 38.3359 8.79052H34.7065V14.4254Z" fill="black"/>
<path d="M56.8234 15.7778C56.8234 17.581 56.2563 19.046 55.1221 20.173C53.9879 21.3 52.6269 21.8635 50.8121 21.8635C49.1108 21.8635 47.7498 21.3 46.729 20.173C45.7082 19.046 45.1411 17.581 45.1411 15.7778V13.1857C45.1411 11.3825 45.7082 9.91746 46.729 8.79048C47.7498 7.6635 49.1108 6.9873 50.8121 6.9873C52.5134 6.9873 53.9879 7.5508 55.1221 8.67778C56.2563 9.80476 56.8234 11.2698 56.8234 13.073V15.7778ZM54.8953 13.2984C54.8953 11.946 54.555 10.9317 53.8745 10.0302C53.194 9.24127 52.1732 8.79048 51.039 8.79048C49.9048 8.79048 48.9974 9.24127 48.3169 10.0302C47.6364 10.9317 47.2961 11.946 47.2961 13.2984V15.7778C47.2961 17.1302 47.6364 18.1444 48.3169 19.046C48.9974 19.8349 49.9048 20.2857 51.039 20.2857C52.2866 20.2857 53.194 19.8349 53.9879 19.046C54.6684 18.2571 55.0087 17.1302 55.0087 15.7778V13.2984H54.8953Z" fill="black"/>
<path d="M80.4147 37.3032H23.2511C21.3229 37.3032 19.8485 35.8381 19.8485 33.9222C19.8485 32.0063 21.3229 30.5413 23.2511 30.5413H80.4147C82.3429 30.5413 83.8173 32.0063 83.8173 33.9222C83.8173 35.8381 82.3429 37.3032 80.4147 37.3032Z" fill="#838991"/>
<path d="M80.4147 49.1365H23.2511C21.3229 49.1365 19.8485 47.6715 19.8485 45.7556C19.8485 43.8397 21.3229 42.3746 23.2511 42.3746H80.4147C82.3429 42.3746 83.8173 43.8397 83.8173 45.7556C83.8173 47.6715 82.3429 49.1365 80.4147 49.1365Z" fill="#838991"/>
<path d="M80.4147 60.9698H23.2511C21.3229 60.9698 19.8485 59.5047 19.8485 57.5888C19.8485 55.673 21.3229 54.2079 23.2511 54.2079H80.4147C82.3429 54.2079 83.8173 55.673 83.8173 57.5888C83.8173 59.5047 82.3429 60.9698 80.4147 60.9698Z" fill="#838991"/>
<path d="M80.4147 72.8032H23.2511C21.3229 72.8032 19.8485 71.3381 19.8485 69.4222C19.8485 67.5063 21.3229 66.0413 23.2511 66.0413H80.4147C82.3429 66.0413 83.8173 67.5063 83.8173 69.4222C83.8173 71.3381 82.3429 72.8032 80.4147 72.8032Z" fill="#838991"/>
<path d="M80.4147 84.6365H23.2511C21.3229 84.6365 19.8485 83.1715 19.8485 81.2556C19.8485 79.3397 21.3229 77.8746 23.2511 77.8746H80.4147C82.3429 77.8746 83.8173 79.3397 83.8173 81.2556C83.8173 83.1715 82.3429 84.6365 80.4147 84.6365Z" fill="#838991"/>
<path d="M80.4147 96.4698H23.2511C21.3229 96.4698 19.8485 95.0047 19.8485 93.0888C19.8485 91.173 21.3229 89.7079 23.2511 89.7079H80.4147C82.3429 89.7079 83.8173 91.173 83.8173 93.0888C83.8173 95.0047 82.3429 96.4698 80.4147 96.4698Z" fill="#838991"/>
<path d="M80.0745 142C108.2 142 131 119.345 131 91.3983C131 63.4519 108.2 40.7968 80.0745 40.7968C51.9491 40.7968 29.1489 63.4519 29.1489 91.3983C29.1489 119.345 51.9491 142 80.0745 142Z" fill="white"/>
<path d="M38.6762 121.827C32.0979 113.036 28.5818 102.443 28.5818 91.2857C28.5818 63.1111 51.7195 40.1206 80.0745 40.1206C83.8173 40.1206 87.5602 40.5714 91.3031 41.3603L91.0762 42.4873C87.4468 41.6984 83.7039 41.2476 80.0745 41.2476C52.2866 41.2476 29.716 63.6746 29.716 91.2857C29.716 102.217 33.1186 112.586 39.5836 121.151L38.6762 121.827Z" fill="#1D1D1B"/>
<path d="M79.8476 137.379C105.405 137.379 126.123 116.793 126.123 91.3984C126.123 66.0039 105.405 45.4175 79.8476 45.4175C54.2905 45.4175 33.5723 66.0039 33.5723 91.3984C33.5723 116.793 54.2905 137.379 79.8476 137.379Z" fill="#F5C44B"/>
<path d="M79.8476 137.943C53.9879 137.943 33.0052 117.094 33.0052 91.3984C33.0052 65.7032 53.9879 44.854 79.8476 44.854C105.707 44.854 126.69 65.7032 126.69 91.3984C126.69 117.094 105.707 137.943 79.8476 137.943ZM79.8476 45.981C54.6684 45.981 34.1394 66.3794 34.1394 91.3984C34.1394 116.417 54.6684 136.816 79.8476 136.816C105.027 136.816 125.556 116.417 125.556 91.3984C125.556 66.3794 105.027 45.981 79.8476 45.981Z" fill="black"/>
<path d="M79.8476 92.5254C79.1671 92.5254 78.7134 92.0746 78.7134 91.3984V52.5175C78.7134 51.8413 79.1671 51.3905 79.8476 51.3905C80.5281 51.3905 80.9818 51.8413 80.9818 52.5175V91.3984C80.9818 92.0746 80.5281 92.5254 79.8476 92.5254Z" fill="white"/>
<path d="M79.8476 92.5254C79.5074 92.5254 79.1671 92.4127 78.9403 92.0746C78.6 91.5111 78.7134 90.8349 79.1671 90.4968L104.119 72.8031C104.573 72.4651 105.367 72.5778 105.707 73.0286C106.048 73.592 105.934 74.2682 105.481 74.6063L80.5282 92.3C80.3013 92.4127 80.0745 92.5254 79.8476 92.5254Z" fill="white"/>
<path d="M78.8268 119.798H69.413V118.446L74.1766 113.262C74.9706 112.36 75.6511 111.572 75.8779 111.008C76.2182 110.445 76.3316 109.881 76.3316 109.318C76.3316 108.641 76.1048 107.965 75.6511 107.514C75.1974 107.064 74.6303 106.725 73.9498 106.725C72.929 106.725 72.2485 106.951 71.6814 107.514C71.2277 108.078 71.0009 108.754 71.0009 109.656H69.0727V109.543C69.0727 108.303 69.413 107.289 70.3203 106.387C71.2277 105.486 72.3619 105.148 73.9498 105.148C75.1974 105.148 76.3316 105.486 77.0121 106.275C77.8061 107.064 78.1463 107.965 78.1463 109.205C78.1463 109.994 77.9195 110.783 77.4658 111.572C77.0121 112.36 76.3316 113.262 75.5377 114.164L71.6814 118.333H78.6V119.798H78.8268Z" fill="black"/>
<path d="M88.8078 114.952H90.7359V116.53H88.6943V119.798H86.7662V116.53H80.3013V115.403L86.6528 105.373H88.6943V114.952H88.8078ZM82.4562 114.952H86.8796V108.191H86.7662L86.5394 108.641L82.4562 114.952Z" fill="black"/>
</svg>
