<svg width="128" height="99" viewBox="0 0 128 99" fill="none" xmlns="http://www.w3.org/2000/svg">
<path d="M10.7 88.7V39.7H0.599976V97.7999H107.2V88.7H10.7Z" fill="#F5C44B" stroke="black" stroke-miterlimit="10"/>
<path d="M119.8 28.3H13.1V86.2001H119.8V28.3Z" fill="white"/>
<path d="M119.8 86.8H13.2C12.9 86.8 12.7 86.6 12.7 86.3V28.4C12.7 28.1 12.9 27.9 13.2 27.9H119.9C120.2 27.9 120.4 28.1 120.4 28.4V86.3C120.3 86.5 120.1 86.8 119.8 86.8ZM13.7 85.8H119.4V28.9H13.7V85.8Z" fill="#1D1D1B"/>
<path d="M108.7 44.2999H53.4C51.7 44.2999 50.4 42.9999 50.4 41.2999V40.7999C50.4 39.0999 51.7 37.7999 53.4 37.7999H108.7C110.4 37.7999 111.7 39.0999 111.7 40.7999V41.2999C111.7 42.9999 110.4 44.2999 108.7 44.2999Z" fill="#838991"/>
<path d="M108.7 55.7999H53.4C51.7 55.7999 50.4 54.4999 50.4 52.7999V52.2999C50.4 50.5999 51.7 49.2999 53.4 49.2999H108.7C110.4 49.2999 111.7 50.5999 111.7 52.2999V52.7999C111.7 54.3999 110.4 55.7999 108.7 55.7999Z" fill="#838991"/>
<path d="M108.7 67.2H53.4C51.7 67.2 50.4 65.9 50.4 64.2V63.7C50.4 62 51.7 60.7 53.4 60.7H108.7C110.4 60.7 111.7 62 111.7 63.7V64.2C111.7 65.8 110.4 67.2 108.7 67.2Z" fill="#838991"/>
<path d="M108.7 78.6H84C82.3 78.6 81 77.3 81 75.6V75.1C81 73.4 82.3 72.1 84 72.1H108.7C110.4 72.1 111.7 73.4 111.7 75.1V75.6C111.7 77.3 110.4 78.6 108.7 78.6Z" fill="#838991"/>
<path d="M110.976 6.16L74.207 42.9292L84.9549 53.6771L121.724 16.9079L110.976 6.16Z" fill="#F5C44B"/>
<path d="M85 54.2999C84.9 54.2999 84.7 54.2 84.6 54.2L73.9 43.3999C73.8 43.2999 73.8 43.2 73.8 43C73.8 42.7999 73.9 42.6999 73.9 42.5999L110.7 5.79995C110.8 5.69995 110.9 5.69995 111.1 5.69995C111.2 5.69995 111.4 5.79995 111.5 5.79995L122.1 16.7C122.3 16.9 122.3 17.2 122.1 17.4L85.3 54.2C85.3 54.2 85.1 54.2999 85 54.2999ZM75 43L85.1 53.0999L121.2 17L111.1 6.89995L75 43Z" fill="#1D1D1B"/>
<path d="M70.2 63.9999L64 57.7999L72.5 44.7999L83.3 55.4999L70.2 63.9999Z" fill="#F5C44B"/>
<path d="M70.2 64.4999C70.1 64.4999 69.9 64.4999 69.8 64.3999L63.6 58.1999C63.4 57.9999 63.4 57.7999 63.5 57.5999L72 44.4999C72.1 44.3999 72.2 44.2999 72.4 44.2999C72.5 44.2999 72.7 44.2999 72.8 44.3999L83.6 55.1999C83.7 55.2999 83.8 55.4999 83.7 55.5999C83.7 55.6999 83.6 55.8999 83.5 55.9999L70.4 64.4999C70.4 64.4999 70.3 64.4999 70.2 64.4999ZM64.7 57.7999L70.3 63.3999L82.5 55.4999L72.6 45.5999L64.7 57.7999Z" fill="#1D1D1B"/>
<path d="M118.68 0.86066L113.306 6.23462L121.791 14.7198L127.165 9.34586L118.68 0.86066Z" fill="#F5C44B"/>
<path d="M121.7 15.3C121.6 15.3 121.4 15.3 121.3 15.2L112.8 6.69998C112.7 6.59998 112.7 6.49998 112.7 6.29998C112.7 6.09998 112.8 5.99998 112.8 5.89998L118.2 0.499976C118.4 0.299976 118.7 0.299976 118.9 0.499976L127.4 8.99998C127.5 9.09998 127.5 9.19998 127.5 9.39998C127.5 9.59998 127.4 9.69998 127.4 9.79998L122 15.2C122 15.2 121.9 15.3 121.7 15.3ZM114 6.29998L121.8 14.1L126.5 9.39998L118.7 1.59998L114 6.29998Z" fill="#1D1D1B"/>
<path d="M63.3 63L65.2 59L69 62.8L65 64.7C64 65.2 62.8 64 63.3 63Z" fill="#F5C44B"/>
<path d="M64.5 65.3C64 65.3 63.6 65.1 63.3 64.8C62.8 64.3 62.6 63.5 62.9 62.8L64.8 58.8C64.9 58.7 65 58.5 65.2 58.5C65.4 58.5 65.5 58.5 65.6 58.6L69.4 62.4C69.5 62.5 69.6 62.7 69.5 62.8C69.4 62.9 69.4 63.1 69.2 63.2L65.2 65.1C65 65.2 64.7 65.3 64.5 65.3ZM63.8 63.2C63.6 63.6 63.8 63.9 64 64.1C64.2 64.3 64.5 64.4 64.9 64.3L68.2 62.8L65.4 60L63.8 63.2Z" fill="#1D1D1B"/>
<path d="M27.1 44.7999C28.6 44.4999 30.6 44.2999 33.2 44.2999C36.3 44.2999 38.6 44.9999 40.1 46.2999C41.4 47.4999 42.2 49.1999 42.2 51.3999C42.2 53.5999 41.5 55.3999 40.3 56.5999C38.6 58.3999 35.9 59.2999 32.8 59.2999C31.9 59.2999 31 59.2999 30.2 59.0999V71.9999H27L27.1 44.7999ZM30.3 56.5999C31 56.7999 31.9 56.8999 32.9 56.8999C36.7 56.8999 39.1 54.9999 39.1 51.6999C39.1 48.4999 36.8 46.8999 33.3 46.8999C31.9 46.8999 30.9 46.9999 30.3 47.1999V56.5999Z" fill="black"/>
<path d="M41.2 62.7H24.1V65.3999H41.2V62.7Z" fill="black"/>
</svg>
