<svg width="149" height="139" viewBox="0 0 149 139" fill="none" xmlns="http://www.w3.org/2000/svg">
<path d="M102.779 133.166L107.364 138.198H89.8222V111.871C89.8222 110.631 89.531 109.537 88.2208 109.537C86.9106 109.537 86.6195 110.558 86.6195 111.871V138.198H77.1568C76.9385 138.198 76.7929 138.052 76.7929 137.833V101.734C76.7929 98.9628 77.6663 96.4832 79.4861 94.3683C80.7235 92.9827 82.3249 91.8159 83.4167 91.3783L95.3542 86.7109L100.595 97.2125C101.032 98.1606 101.905 98.8169 102.924 99.1086C103.943 99.3274 105.035 99.1816 105.909 98.5252L106.127 98.3793L107.073 99.8379L101.978 130.176V130.249C101.76 131.343 102.051 132.437 102.779 133.166Z" fill="#F5C44B"/>
<path d="M101.978 75.3342V79.2723L82.4704 86.7838L79.9956 72.0524L80.9419 70.5939L81.1602 70.7397C82.0337 71.3231 83.1255 71.5419 84.1446 71.3232C85.1637 71.1044 86.0371 70.3751 86.4739 69.427L90.3317 61.6238C91.6419 63.3011 93.6072 64.2492 95.5725 64.5409C96.3004 68.9895 98.6297 72.7817 101.978 75.3342Z" fill="#F5C44B"/>
<path d="M72.2071 101.734V137.833C72.2071 138.052 72.0615 138.198 71.8432 138.198H62.3805V111.871C62.3805 110.631 62.0894 109.537 60.7792 109.537C59.5418 109.537 59.1778 110.558 59.1778 111.871V138.198H41.6356L46.2213 133.166C46.9492 132.364 47.2403 131.27 47.0948 130.249V130.176L41.9267 99.8379L42.873 98.3793L43.0913 98.5252C43.6737 98.9628 44.4016 99.1816 45.1295 99.1816C46.4397 99.1816 47.7499 98.4523 48.3322 97.2125L53.573 86.7109L65.5105 91.3783C69.0772 92.9098 72.2071 96.7749 72.2071 101.734Z" fill="#F5C44B"/>
<path d="M68.0581 70.6669L69.0044 72.1255L66.5296 86.7839L46.9492 79.1994V75.0426C48.5506 73.7299 49.9336 72.1255 50.9526 70.3752C51.9717 68.6249 52.6996 66.6559 52.9907 64.6139C55.1744 64.3222 57.1397 63.2283 58.4499 61.478L62.4533 69.573C62.8901 70.521 63.7636 71.1774 64.7826 71.4691C65.8017 71.6879 66.8935 71.542 67.767 70.8857L68.0581 70.6669Z" fill="#F5C44B"/>
<path d="M26.7137 133.166L31.2995 138.198H13.6844V111.871C13.6844 110.631 13.3933 109.537 12.083 109.537C10.8456 109.537 10.5545 110.558 10.5545 111.871V138.198H1.09184C0.873469 138.198 0.72789 138.052 0.72789 137.833V101.734C0.72789 94.3683 6.91499 91.5241 7.35173 91.3783L19.2892 86.7838L24.53 97.2854C24.9668 98.2334 25.8403 98.8898 26.8593 99.1815C27.8784 99.4003 28.9702 99.2544 29.8437 98.5981L30.062 98.4522L31.0083 99.9108L25.913 130.249V130.322C25.6947 131.343 25.9858 132.436 26.7137 133.166Z" fill="#F5C44B"/>
<path d="M77.1568 67.9685L76.3561 69.2812H72.6439L71.7704 67.9685L74.4636 66.0724L77.1568 67.9685Z" fill="#838991"/>
<path d="M75.6282 73.8757L78.2486 89.2635C76.6473 90.5032 75.4099 91.9618 74.5364 93.4203C73.5901 91.8889 72.3527 90.4303 70.8241 89.2635L73.4445 73.8757C73.4445 73.8757 75.6282 73.8757 75.6282 73.8757Z" fill="#838991"/>
<path d="M115.226 95.754L114.352 96.9937H110.64L109.839 95.754L112.532 93.7849L115.226 95.754Z" fill="#838991"/>
<path d="M113.624 101.588L118.501 130.467L112.532 137.104L106.491 130.467L111.368 101.588H113.624Z" fill="#838991"/>
<path d="M39.1607 95.754L38.2872 96.9937H34.575L33.7743 95.754L36.4675 93.7849L39.1607 95.754Z" fill="#838991"/>
<path d="M148.272 122.445V137.833C148.272 138.052 148.127 138.198 147.908 138.198H138.446V111.871C138.446 110.631 138.154 109.537 136.844 109.537C135.534 109.537 135.243 110.558 135.243 111.871V138.198H117.628L122.213 133.166C122.941 132.364 123.233 131.27 123.087 130.249V130.176L117.919 99.8379L118.865 98.3793L119.084 98.5252C119.957 99.1086 120.976 99.3274 122.068 99.1086C123.087 98.8169 123.96 98.1606 124.397 97.2125L129.638 86.7109L141.575 91.3783C142.012 91.5971 148.199 94.3683 148.199 101.734V111.725L148.272 122.445Z" fill="#F5C44B"/>
<path d="M37.6322 101.588L42.509 130.467L36.4675 137.104L30.426 130.467L35.3029 101.588H37.6322Z" fill="#838991"/>
<path d="M114.207 96.629L114.789 95.8268L112.605 94.2224L110.422 95.8268L111.004 96.629H114.207ZM109.33 95.608L112.533 93.3473L115.735 95.608L114.571 97.3583H110.494L109.33 95.608Z" fill="black"/>
<path d="M114.716 95.8268L114.207 96.629H110.858L110.349 95.8268L112.532 94.2224L114.716 95.8268Z" fill="black"/>
<path d="M74.4636 92.7639C75.3371 91.4512 76.5017 90.2114 77.8119 89.1175L75.3371 74.2403H73.6629L71.1153 89.1175C72.4983 90.1385 73.5901 91.3782 74.4636 92.7639ZM70.3874 89.4092L73.0806 73.511H75.9922L78.6854 89.4092L78.5398 89.5551C77.084 90.7219 75.8466 92.1075 74.9003 93.639L74.6092 94.1495L74.318 93.639C73.3718 92.1075 72.1343 90.7219 70.6785 89.5551L70.3874 89.4092Z" fill="black"/>
<path d="M94.9902 54.3311V59.2901C94.044 58.7796 93.5344 57.8316 93.5344 56.7377C93.5344 55.7896 94.1167 54.9145 94.9902 54.3311Z" fill="white"/>
<path d="M48.2594 49.7366V61.9884C48.2594 68.479 42.9458 73.8027 36.4675 73.8027C28.8246 73.8027 24.2389 67.8226 24.2389 61.9884V51.5598C31.1539 51.7785 38.5784 49.7366 44.7655 45.9443L46.2941 47.5487C47.2404 48.6427 47.8955 49.299 48.2594 49.7366Z" fill="white"/>
<path d="M37.2682 101.953L42.0723 130.322L36.4675 136.52L30.7899 130.322L35.5941 101.953H37.2682Z" fill="black"/>
<path d="M84.7997 47.0383C88.0024 44.4858 90.1133 40.8394 90.6956 36.8284V36.5367H90.9868C91.3507 36.4638 91.7147 36.3908 92.0786 36.3179L92.8065 36.0991L92.5154 36.8284C91.278 39.5996 90.6956 42.5168 90.6956 45.5068V51.9973L90.6228 52.0703C90.2589 52.5078 89.9677 52.9454 89.7494 53.383L89.6038 53.6747L84.6541 51.7056V47.1112L84.7997 47.0383ZM90.7684 39.5996C89.7494 42.6626 87.8568 45.4339 85.382 47.4758V51.2681L89.3126 52.7995C89.531 52.4349 89.7494 52.1432 90.0405 51.7786V45.5797C89.9677 43.4648 90.2589 41.4958 90.7684 39.5996ZM91.0596 38.7245C91.2052 38.214 91.4235 37.7035 91.6419 37.193C91.5691 37.193 91.4963 37.193 91.4235 37.266C91.278 37.7035 91.2052 38.214 91.0596 38.7245Z" fill="black"/>
<path d="M74.4636 66.51L72.2799 68.1144L72.7894 68.9166H76.1378L76.6473 68.1144L74.4636 66.51ZM76.5017 69.6459H72.4255L71.2609 67.8956L74.4636 65.6349L77.6663 67.8956L76.5017 69.6459Z" fill="black"/>
<path d="M112.532 137.614L106.127 130.54V130.395L111.077 101.224H113.988L118.938 130.54L112.532 137.614ZM118.137 130.322L113.333 101.953H111.659L106.855 130.322L112.46 136.52L118.137 130.322Z" fill="black"/>
<path d="M86.3283 22.0242V34.276C86.3283 40.7666 81.0147 46.0903 74.5364 46.0903C66.8935 46.0903 62.3078 40.1102 62.3078 34.276V23.8474C69.2228 24.0661 76.6473 22.0242 82.8344 18.2319L84.5086 19.9822C85.382 20.9303 85.9643 21.5866 86.3283 22.0242Z" fill="white"/>
<path d="M65.4377 56.3L70.6058 62.7177L66.2384 65.8536L62.0894 57.5398L65.4377 56.3Z" fill="white"/>
<path d="M64.2003 47.33L64.3459 47.4029V51.7786L59.105 53.8205L58.9595 53.5288C58.7411 53.0183 58.3771 52.5078 58.0132 51.9973L57.8676 51.8515V45.5068C57.8676 42.5168 57.2853 39.5996 56.0479 36.8284L55.7567 36.0991L56.4846 36.3179C56.7758 36.3908 57.1397 36.4638 57.5765 36.5367H57.8676L57.9404 36.8284C58.5955 40.9853 60.852 44.7775 64.2003 47.33ZM56.9941 37.193C58.086 39.8914 58.5955 42.6626 58.5955 45.5068V51.5598C58.8867 51.9973 59.1778 52.362 59.3962 52.7995L63.5452 51.1951V47.6946C60.2697 45.1421 57.9404 41.277 57.2125 37.1201C57.1397 37.193 57.0669 37.193 56.9941 37.193Z" fill="black"/>
<path d="M34.7933 96.629H38.0689L38.6512 95.8268L36.4675 94.2224L34.2838 95.8268L34.7933 96.629ZM38.5056 97.3583H34.4294L33.2648 95.608L36.4675 93.3473L39.6702 95.608L38.5056 97.3583Z" fill="black"/>
<path d="M38.6512 95.8268L38.1417 96.629H34.7934L34.2838 95.8268L36.4675 94.2224L38.6512 95.8268Z" fill="black"/>
<path d="M103.434 84.0126L108.675 90.5031L106.782 91.8888C105.763 92.618 104.744 93.2744 104.307 93.639L100.086 85.3253L103.434 84.0126Z" fill="white"/>
<path d="M85.382 47.4029C88.0024 45.2151 89.895 42.5167 90.8412 39.3809C90.3317 41.3499 90.0405 43.3919 90.0405 45.4338V51.7786C89.7494 52.1432 89.531 52.4349 89.3127 52.7995L85.3092 51.2681L85.382 47.4029Z" fill="black"/>
<path d="M86.9106 57.5398L82.7616 65.8536L82.0337 65.3431L78.3214 62.7177L83.5623 56.3L86.9106 57.5398Z" fill="white"/>
<path d="M48.8417 85.3253L44.6927 93.5661L40.3253 90.4302L45.4934 84.0126L48.8417 85.3253Z" fill="white"/>
<path d="M131.167 56.7376C131.167 57.8316 130.584 58.7796 129.711 59.2901V54.1852C130.584 54.6957 131.167 55.6437 131.167 56.7376Z" fill="white"/>
<path d="M77.8119 89.1176C76.5017 90.2115 75.4099 91.4513 74.4636 92.764C73.5901 91.4513 72.4255 90.2115 71.1153 89.1176L73.6629 74.2404H75.3371L77.8119 89.1176Z" fill="black"/>
<path d="M91.6419 37.1931C91.4236 37.7036 91.278 38.2141 91.0596 38.7246C91.2052 38.2141 91.278 37.7036 91.3508 37.1931C91.4963 37.1931 91.5691 37.1931 91.6419 37.1931Z" fill="black"/>
<path d="M35.594 101.953L30.7899 130.322L36.3947 136.52L41.9995 130.322L37.1954 101.953H35.594ZM37.9233 101.224L42.873 130.54L36.4675 137.614L30.062 130.54L35.0117 101.224H37.9233Z" fill="black"/>
<path d="M80.0684 50.4658V52.1432L74.5364 58.9984L68.9316 52.0702V50.4658C72.4255 51.6327 76.5017 51.7056 80.0684 50.4658Z" fill="white"/>
<path d="M93.0977 29.0252C93.0977 29.9003 92.7337 30.7025 92.0786 31.2859C91.9331 31.4318 91.7875 31.5047 91.6419 31.6506V26.5457C92.5154 26.9832 93.0977 27.9313 93.0977 29.0252Z" fill="white"/>
<path d="M124.907 85.3253L120.758 93.639C119.884 93.0556 117.555 91.3783 116.536 90.649L116.318 90.5031L121.558 84.0126L124.907 85.3253Z" fill="white"/>
<path d="M76.6473 68.1143L76.1377 68.9165H72.8622L72.2799 68.1143L74.4636 66.5099L76.6473 68.1143Z" fill="black"/>
<path d="M27.3688 84.0126L32.6097 90.4302L28.1695 93.5661L24.0933 85.3253L27.3688 84.0126Z" fill="white"/>
<path d="M124.324 49.7366V61.9884C124.324 68.479 119.011 73.8027 112.532 73.8027C104.89 73.8027 100.304 67.8226 100.304 61.9884V51.5598C107.219 51.7785 114.643 49.7366 120.83 45.9443L122.359 47.6217C123.305 48.6427 123.96 49.299 124.324 49.7366Z" fill="white"/>
<path d="M112.314 27.7125C102.56 27.7125 94.5535 35.6616 94.5535 45.5069V49.5179L94.9902 49.445C95.063 49.445 95.5725 49.2991 95.6453 49.2991H95.8637L95.9365 49.0803C96.446 47.6218 97.7562 46.8196 99.4304 46.9654C106.054 47.403 113.333 45.4339 119.229 41.5688C120.612 40.6936 122.359 40.9124 123.451 42.0793C124.397 43.1002 125.125 43.9024 125.78 44.5588C127.382 46.2361 128.037 46.9654 128.473 47.5488C128.765 47.9864 128.91 48.351 128.983 48.8615V49.1532L129.347 49.2262C129.42 49.2262 129.565 49.2991 129.638 49.2991L130.075 49.372V45.5069C130.075 35.7346 122.068 27.7125 112.314 27.7125ZM95.3542 48.4969C95.4998 48.1323 95.7181 47.8405 96.0093 47.5488C95.7181 47.7676 95.4998 48.1323 95.3542 48.4969ZM129.056 47.1113C128.619 46.4549 127.964 45.7256 126.217 43.9754C125.562 43.319 124.834 42.5168 123.888 41.4958C123.596 41.1312 123.16 40.8395 122.796 40.6207C123.233 40.8395 123.596 41.1312 123.96 41.4958C124.907 42.5168 125.635 43.319 126.29 43.9754C127.964 45.7256 128.619 46.4549 129.056 47.1113C129.201 47.1842 129.274 47.403 129.347 47.5488V47.6218C129.274 47.4759 129.201 47.2571 129.056 47.1113Z" fill="black"/>
<path d="M41.9995 78.1783V79.8557L36.4675 86.7109L30.8627 79.7828V78.1783C34.2838 79.3452 38.4328 79.4181 41.9995 78.1783Z" fill="white"/>
<path d="M118.064 78.1783V79.8557L112.532 86.7109L107 79.7828V78.1783C110.422 79.3452 114.498 79.4181 118.064 78.1783Z" fill="white"/>
<path d="M56.9941 26.6185V31.5776C56.0479 31.0671 55.5383 30.1191 55.5383 29.0251C55.4656 28.0771 56.0479 27.202 56.9941 26.6185Z" fill="white"/>
<path d="M74.318 0C69.5867 0 65.0738 1.82319 61.871 5.25079C58.4499 8.60546 56.6302 13.054 56.6302 17.7943V21.7324L57.1397 21.6595C57.2853 21.6595 57.5764 21.5866 57.6492 21.5866L57.8676 21.5136L57.7948 21.2949C58.3043 19.9822 59.6873 19.107 61.1431 19.18C67.9125 19.6905 75.1915 17.7214 81.1602 13.7833C82.5432 12.9082 84.2902 13.127 85.382 14.2938C86.3283 15.3148 87.0562 16.0441 87.6385 16.7004C89.1671 18.3778 89.895 19.107 90.3317 19.6905C90.6956 20.128 90.914 20.4927 90.914 21.149L90.9868 21.4407L91.278 21.5136C91.4235 21.5136 91.5691 21.5866 91.6419 21.5866L92.0786 21.6595V17.7943C92.0786 7.94911 84.0718 0 74.318 0ZM90.8412 19.3258C90.4045 18.7424 89.6766 17.9402 88.0752 16.2629C87.4929 15.6065 86.765 14.8043 85.8915 13.8562C85.382 13.3457 84.7997 12.9082 84.1446 12.7623C84.7997 12.9811 85.4548 13.3457 85.9643 13.9292C86.8378 14.9502 87.5657 15.6794 88.148 16.3358C89.7494 18.0131 90.4773 18.8153 90.914 19.3987C90.9868 19.5446 91.1324 19.6905 91.2052 19.9092V19.9822C91.1324 19.7634 90.9868 19.5446 90.8412 19.3258Z" fill="black"/>
<path d="M113.333 101.953L118.137 130.322L112.532 136.593L106.855 130.322L111.659 101.953H113.333Z" fill="black"/>
<path d="M58.5955 45.361C58.5955 42.5168 58.086 39.6726 56.9941 37.0472C57.0669 37.0472 57.1397 37.0472 57.2125 37.1202C57.9404 41.277 60.2697 45.0693 63.5452 47.6947V51.1952L59.3962 52.7996C59.1778 52.362 58.8867 51.9245 58.5955 51.5598V45.361Z" fill="black"/>
<path d="M18.9253 54.3311V59.2901C17.979 58.7796 17.4695 57.8316 17.4695 56.7377C17.4695 55.7896 18.0518 54.9145 18.9253 54.3311Z" fill="white"/>
<path d="M23.9477 50.8305C30.9355 51.1222 38.5056 49.0802 44.6927 45.2151L44.9839 45.0692L46.8764 47.1112C47.8954 48.2051 48.6233 49.0073 48.9873 49.3719L49.0601 49.4449V61.9884C49.0601 68.9165 43.4553 74.532 36.5403 74.532C28.4607 74.532 23.5838 68.1143 23.5838 61.9884V50.8305H23.9477ZM36.4675 73.8027C42.9458 73.8027 48.2594 68.479 48.2594 61.9884V49.7366C47.8954 49.299 47.2403 48.6427 46.2941 47.5488L44.7655 45.9443C38.5784 49.7366 31.1539 51.7056 24.2389 51.5598V61.9884C24.2389 67.7497 28.8246 73.8027 36.4675 73.8027Z" fill="black"/>
<path d="M36.5403 74.8965C28.1695 74.8965 23.2198 68.3331 23.2198 61.9884V50.4658H23.9477C30.8627 50.7575 38.36 48.7155 44.4744 44.9233L45.0567 44.6316L48.1138 47.9133C48.6233 48.4968 49.0601 48.9343 49.2785 49.1531L49.424 49.299V61.9884C49.424 69.1353 43.6737 74.8965 36.5403 74.8965ZM36.4675 74.1673C43.1641 74.1673 48.6961 68.6977 48.6961 61.9884V49.5907C48.4778 49.3719 48.041 48.9343 47.5315 48.3509L46.658 47.4028C47.1676 47.9863 47.5315 48.4238 47.8955 48.7885C48.1866 49.0802 48.405 49.299 48.5506 49.5177L48.6234 49.5907V61.9884C48.6234 68.6977 43.1641 74.1673 36.4675 74.1673ZM24.6028 51.9243V61.9884C24.6028 67.6038 29.043 73.438 36.4675 73.438C42.8002 73.438 47.8955 68.3331 47.8955 61.9884V49.8824C47.7499 49.7365 47.5315 49.5177 47.3131 49.299C46.9492 48.9343 46.5125 48.4238 46.0029 47.8404L44.6927 46.4548C38.724 50.0282 31.445 51.9973 24.6028 51.9243ZM44.9111 45.5067L46.3669 47.0382L44.9111 45.5067Z" fill="black"/>
<path d="M89.3855 111.944C89.3855 110.85 89.2399 109.975 88.148 109.975C87.0562 109.975 86.9106 110.85 86.9106 111.944V138.562H77.084C76.6473 138.562 76.3561 138.198 76.3561 137.833V101.734C76.3561 98.8169 77.3024 96.2645 79.1221 94.1496C80.4323 92.691 82.1065 91.5242 83.1983 91.0866L95.427 86.3463L100.813 97.1396C101.25 98.0147 101.978 98.5981 102.924 98.8169C103.871 99.0357 104.817 98.8899 105.618 98.3064L106.2 97.9418L107.437 99.8379V99.9838L102.342 130.322C102.196 131.343 102.488 132.364 103.143 133.02L108.238 138.635H89.4582L89.3855 111.944ZM86.2555 111.944C86.2555 110.485 86.6922 109.246 88.2208 109.246C89.6766 109.246 90.1861 110.412 90.1861 111.944V137.833H106.564L102.56 133.385C101.76 132.509 101.396 131.343 101.614 130.103C101.614 130.03 101.614 130.03 101.614 129.957L106.709 99.765L106.054 98.744C105.108 99.4003 103.943 99.6191 102.851 99.3274C101.76 99.0357 100.813 98.3064 100.304 97.2125L95.2086 87.0027L83.6351 91.5242C82.616 91.9617 81.0875 92.9827 79.85 94.4413C78.1031 96.4103 77.2296 98.8169 77.2296 101.588V137.833H86.3283V111.944H86.2555Z" fill="black"/>
<path d="M109.039 139H89.0943L89.0215 111.944C89.0215 110.558 88.7303 110.339 88.148 110.339C87.5657 110.339 87.2746 110.558 87.2746 111.944V138.927H77.084C76.5017 138.927 75.9922 138.417 75.9922 137.833V101.734C75.9922 98.7439 76.9385 96.1186 78.831 93.9307C80.2868 92.3263 81.9609 91.1595 83.0528 90.7948L95.5725 85.9087L101.105 96.9937C101.468 97.7959 102.124 98.3064 102.997 98.4522C103.871 98.671 104.744 98.5252 105.399 98.0147L106.273 97.4313L107.728 99.692V99.9108L102.633 130.322C102.488 131.27 102.779 132.145 103.361 132.728L109.039 139ZM89.8222 138.271H107.437L107.364 138.198H89.8222V111.944C89.8222 109.61 88.5848 109.61 88.2208 109.61C88.2208 109.61 88.2208 109.61 88.148 109.61C89.7494 109.61 89.7494 111.215 89.7494 111.944L89.8222 138.271ZM77.084 138.198H86.5467H77.084ZM79.6317 94.1495C79.5589 94.2224 79.4861 94.2954 79.4133 94.4412C77.6663 96.4832 76.7201 98.9627 76.7201 101.807V137.833C76.7201 137.906 76.7929 138.052 76.8657 138.125V101.588C76.8657 98.7439 77.8119 96.1915 79.5589 94.2224C79.6317 94.1495 79.6317 94.1495 79.6317 94.1495ZM90.5501 137.468H105.763L102.342 133.603C101.468 132.655 101.105 131.343 101.323 130.03V129.957L106.418 99.8379L106.054 99.2544C105.108 99.8379 103.943 99.9837 102.851 99.692C101.614 99.3274 100.595 98.5252 100.085 97.3583L95.1358 87.4402L83.8534 91.8158C82.98 92.1805 81.4514 93.2015 80.214 94.66C78.5398 96.5561 77.6663 98.8898 77.6663 101.588V137.468H86.0371V112.308L85.9643 111.944C85.9643 109.391 87.2018 108.881 88.2936 108.881C89.1671 108.881 90.6229 109.246 90.6229 111.944V137.468H90.5501ZM107.073 99.9108L101.978 130.03V130.103C101.905 130.686 101.905 131.27 102.051 131.78C101.905 131.343 101.905 130.832 101.978 130.322L107.073 99.9108Z" fill="black"/>
<path d="M54.7377 29.0252C54.7377 27.6396 55.6839 26.3269 57.1397 25.6706L57.6492 25.4518V32.6716L57.1397 32.5258C55.7567 31.9423 54.7377 30.5567 54.7377 29.0252ZM56.9941 26.6186C56.0479 27.202 55.5384 28.0772 55.5384 29.0252C55.5384 30.1191 56.1207 31.0672 56.9941 31.5777V26.6186Z" fill="black"/>
<path d="M58.0132 33.182L57.0669 32.8903C55.4656 32.234 54.3737 30.7025 54.3737 29.0252C54.3737 27.4937 55.3928 26.0351 56.9941 25.3059L58.0132 24.8683V33.182ZM57.2853 26.0351C55.9751 26.6185 55.1016 27.7854 55.1016 29.0252C55.1016 30.3379 55.9751 31.6506 57.2853 32.161L56.7758 31.8693C55.7567 31.2859 55.1744 30.192 55.1744 29.0252C55.1744 27.9312 55.7567 26.9103 56.7758 26.3268L57.2853 26.0351ZM56.6302 27.3478C56.1207 27.7854 55.9023 28.3688 55.9023 29.0252C55.9023 29.7544 56.1935 30.3379 56.6302 30.8483V27.3478Z" fill="black"/>
<path d="M93.5344 56.7376C93.5344 57.8316 94.1168 58.7796 94.9902 59.2901V54.331C94.1168 54.9144 93.5344 55.7896 93.5344 56.7376ZM92.8065 56.7376C92.8065 55.352 93.7528 54.0393 95.2086 53.383L95.7181 53.1642V60.384L95.2086 60.2382C93.7528 59.6547 92.8065 58.2691 92.8065 56.7376Z" fill="black"/>
<path d="M96.0821 60.8946L95.1358 60.6028C93.5344 59.9465 92.4426 58.415 92.4426 56.7377C92.4426 55.2062 93.4617 53.7477 95.063 53.0184L96.0821 52.5808V60.8946ZM93.1705 56.7377C93.1705 58.0504 93.9712 59.2901 95.2086 59.8736L94.7719 59.6548C93.8256 58.9984 93.1705 57.9045 93.1705 56.7377ZM94.6263 55.1333C94.1895 55.6438 93.8984 56.2272 93.8984 56.7377C93.8984 57.467 94.1895 58.0504 94.6263 58.5609V55.1333ZM94.8447 53.9664C94.1895 54.404 93.68 54.9145 93.3889 55.5708C93.68 54.9874 94.1168 54.4769 94.8447 53.9664Z" fill="black"/>
<path d="M93.0977 29.0251C93.0977 27.9312 92.5154 26.9831 91.6419 26.4726V31.5776C91.7875 31.5046 91.9331 31.3588 92.0787 31.2129C92.7338 30.7024 93.0977 29.9002 93.0977 29.0251ZM93.8256 29.0251C93.8256 30.119 93.3889 31.14 92.5882 31.7963C92.2242 32.0881 91.8603 32.3068 91.4236 32.4527L90.914 32.5985V25.3058L91.4236 25.4516C92.8793 26.108 93.8256 27.4207 93.8256 29.0251Z" fill="black"/>
<path d="M90.5501 33.1092V24.7954L91.4963 25.0871C93.1705 25.8164 94.1895 27.2749 94.1895 29.0252C94.1895 30.265 93.68 31.3589 92.8066 32.0882C92.3698 32.4528 92.0059 32.6716 91.4963 32.8174L90.5501 33.1092ZM91.278 25.8164V32.0882V25.8164L91.8603 26.181C92.8793 26.7645 93.4617 27.8584 93.4617 29.0252C93.4617 27.6396 92.661 26.3998 91.278 25.8164ZM93.4617 29.0252C93.4617 30.0462 93.0249 30.9213 92.297 31.5047C92.2242 31.5777 92.1514 31.6506 92.0059 31.7235C92.0787 31.6506 92.2242 31.5777 92.297 31.5047C93.0249 30.9213 93.4617 30.0462 93.4617 29.0252ZM92.0059 27.202V30.7755C92.5154 30.3379 92.7338 29.6816 92.7338 29.0252C92.7338 28.2959 92.4426 27.7125 92.0059 27.202Z" fill="black"/>
<path d="M46.7308 130.322C46.7308 130.249 46.7308 130.249 46.7308 130.176L41.5628 99.765L42.8002 97.8689L43.3825 98.2335C43.9648 98.5981 44.6199 98.8169 45.275 98.8169C46.5125 98.8169 47.6043 98.1606 48.1866 96.9937L53.573 86.2004L65.8017 90.9407C69.2228 92.3993 72.6439 96.3374 72.6439 101.661V137.833C72.6439 138.271 72.2799 138.562 71.916 138.562H62.0166V111.871C62.0166 110.777 61.871 109.902 60.7792 109.902C59.6874 109.902 59.5418 110.777 59.5418 111.871V138.562H40.8349L45.9301 132.947C46.5853 132.291 46.8764 131.27 46.7308 130.322ZM46.4397 133.458L42.4363 137.906H58.8139V111.944C58.8139 110.485 59.2506 109.246 60.7792 109.246C62.235 109.246 62.7445 110.412 62.7445 111.944V137.833H71.8432V101.734C71.8432 96.702 68.6405 93.0556 65.4377 91.67L53.8642 87.1485L48.7689 97.3584C48.1138 98.744 46.7308 99.5462 45.2023 99.5462C44.4016 99.5462 43.6009 99.3274 42.9458 98.8169L42.2907 99.8379L47.3859 130.03C47.3859 130.103 47.3859 130.103 47.3859 130.176C47.6043 131.343 47.2404 132.582 46.4397 133.458Z" fill="black"/>
<path d="M71.916 138.927H61.6527V111.871C61.6527 110.485 61.3615 110.266 60.7792 110.266C60.1969 110.266 59.9057 110.485 59.9057 111.871V138.927H40.0342L45.7118 132.728C46.2941 132.145 46.5852 131.27 46.4397 130.395V130.176L41.2716 99.692L42.8002 97.3583L43.6737 97.9417C44.256 98.3064 44.8383 98.4522 45.3478 98.4522C46.5125 98.4522 47.3859 97.8688 47.9682 96.8478L53.5002 85.7628L66.02 90.649C69.5139 92.1804 73.0806 96.1185 73.0806 101.734V137.833C73.0078 138.417 72.4983 138.927 71.916 138.927ZM62.3806 138.198H71.916H62.3806ZM59.1778 138.198V111.944V138.198ZM41.6356 138.198L44.8383 134.624L41.6356 138.198ZM53.7186 86.7109L65.5833 91.3053C68.8588 92.7639 72.2071 96.4832 72.2071 101.734V138.052C72.2799 137.979 72.2799 137.906 72.2799 137.833V101.661C72.2799 96.4102 68.9316 92.6909 65.6561 91.3053L53.7186 86.7109ZM43.2369 137.541H58.4499V111.944C58.4499 109.391 59.6873 108.881 60.7792 108.881C61.6527 108.881 63.1084 109.246 63.1084 111.944V137.468H71.4792V101.734C71.4792 96.8478 68.3493 93.3473 65.2921 92.0346L54.0098 87.6589L49.0601 97.5771C48.3322 99.0356 46.8764 99.9837 45.2022 99.9837C44.4016 99.9837 43.6737 99.7649 43.0186 99.4003L42.6546 99.9837L47.7499 130.03V130.249C47.9682 131.488 47.6043 132.801 46.7308 133.749L43.2369 137.541ZM43.1641 98.5252C43.7465 98.9627 44.4743 99.1815 45.2022 99.1815C44.5471 99.1815 43.8192 98.9627 43.1641 98.5252Z" fill="black"/>
<path d="M100.304 61.9884C100.304 67.8226 104.89 73.8027 112.532 73.8027C119.011 73.8027 124.324 68.479 124.324 61.9884V49.7366C123.96 49.299 123.305 48.6427 122.359 47.6217L120.83 45.9443C114.643 49.7366 107.219 51.7786 100.304 51.5598V61.9884ZM122.941 47.1112C123.96 48.2051 124.688 48.9344 125.052 49.3719L125.125 49.4449V61.9884C125.125 68.9165 119.52 74.532 112.605 74.532C104.526 74.532 99.6487 68.1143 99.6487 61.9884V50.8305H100.013C107 51.1222 114.571 49.0802 120.758 45.2151L121.049 45.0692L122.941 47.1112Z" fill="black"/>
<path d="M112.605 74.8965C104.234 74.8965 99.2848 68.3331 99.2848 61.9884V50.4658H100.013C107 50.7575 114.425 48.7155 120.539 44.9233L121.122 44.6316L123.233 46.8923C123.596 47.3299 123.96 47.6946 124.324 47.9863C124.834 48.4968 125.125 48.8614 125.416 49.1531L125.562 49.299V61.9884C125.489 69.1353 119.739 74.8965 112.605 74.8965ZM112.532 74.1673C112.605 74.1673 112.605 74.1673 112.532 74.1673C119.302 74.1673 124.761 68.6977 124.761 61.9884V49.5907C124.543 49.299 124.179 48.9343 123.742 48.4968C123.451 48.205 123.087 47.7675 122.65 47.4028L120.976 45.5796L122.65 47.4028C123.014 47.7675 123.305 48.1321 123.596 48.4238C124.033 48.8614 124.397 49.226 124.616 49.5177L124.688 49.5907V61.9884C124.688 68.6977 119.229 74.1673 112.532 74.1673ZM100.668 51.9243V61.9884C100.668 67.6038 105.108 73.438 112.532 73.438C118.865 73.438 123.96 68.3331 123.96 61.9884V49.8824C123.742 49.6636 123.451 49.299 123.087 48.9343C122.796 48.6426 122.505 48.278 122.141 47.9133L120.83 46.4548C114.716 50.1012 107.437 52.0702 100.668 51.9243Z" fill="black"/>
<path d="M86.9106 57.5398L83.5623 56.2271L78.3215 62.7177L82.0337 65.3431L82.7616 65.8536L86.9106 57.5398ZM83.3439 55.4249L87.9297 57.1752L83.0528 66.9475L77.3024 62.8635L83.3439 55.4249Z" fill="black"/>
<path d="M83.1984 67.458L76.7929 62.9365L83.2711 54.9874L88.512 56.9565L83.1984 67.458ZM82.9072 66.3641L87.4201 57.3211L82.9072 66.3641ZM78.831 62.6448L82.616 65.3431L86.4011 57.7587L83.6351 56.6648L78.831 62.6448Z" fill="black"/>
<path d="M23.0742 84.8877L27.66 83.1375L33.7015 90.649L27.9511 94.7329L23.0742 84.8877ZM32.6097 90.4302L27.3688 83.9397L24.0205 85.2524L28.1695 93.5661L32.6097 90.4302Z" fill="black"/>
<path d="M27.8056 95.2435L22.5647 84.669L27.8056 82.7L34.2838 90.722L27.8056 95.2435ZM28.0239 94.0767L28.0967 94.1496L33.192 90.5032L33.1192 90.4303L28.0239 94.0767ZM24.53 85.4712L28.3151 93.0557L32.1001 90.3573L27.296 84.3773L24.53 85.4712ZM27.5144 83.5751L28.0967 84.3044L27.5144 83.5751Z" fill="black"/>
<path d="M90.6229 61.478C91.8603 63.0095 93.68 64.0304 95.6453 64.2492L95.9365 64.3221L96.0093 64.6139C96.6644 68.7707 98.9209 72.49 102.269 75.0425L102.415 75.1884V79.564L102.196 79.6369L82.2521 87.3673L79.6317 72.0525L80.8691 70.1564L81.4514 70.521C82.2521 71.1044 83.1983 71.2503 84.1446 71.0315C85.0909 70.8127 85.8188 70.1564 86.2555 69.3542L90.4045 61.0404L90.6229 61.478ZM84.2174 71.7608C83.1255 72.0525 81.9609 71.8337 81.0147 71.1773L80.3595 72.1983L82.7616 86.3463L101.614 78.9806V75.4801C98.2658 72.8547 96.0093 69.1354 95.2814 64.9056C93.3889 64.6139 91.7147 63.6658 90.4045 62.3531L86.765 69.6459C86.2555 70.7398 85.3092 71.4691 84.2174 71.7608Z" fill="black"/>
<path d="M81.9609 87.8778L79.2677 71.9796L80.7963 69.6459L81.6697 70.2293C82.3976 70.7398 83.1983 70.8856 84.0718 70.6669C84.8725 70.521 85.5276 69.9376 85.9643 69.1354L90.4045 60.1653L90.914 61.1863C92.0786 62.6448 93.8256 63.5929 95.6453 63.8117L96.2276 63.9575L96.3732 64.468C97.0283 68.552 99.212 72.1983 102.488 74.6779L102.779 74.9696V79.7828L102.342 79.9287L81.9609 87.8778ZM82.5432 86.8568L102.051 79.3452V75.4072L101.978 75.3342C98.5569 72.7088 96.3004 68.9166 95.6453 64.6868L95.5725 64.6139L95.6453 64.8327C96.3732 68.9166 98.5569 72.6359 101.832 75.1884L101.978 75.3342V79.2723L82.5432 86.8568ZM80.7235 72.2713L83.0527 85.8358L101.25 78.6889V75.6259C97.9746 73.0005 95.7181 69.2812 94.9902 65.1973C93.3889 64.9056 91.8603 64.1034 90.5501 62.9365L87.129 69.7917C86.6194 70.8856 85.6004 71.7608 84.363 72.1254C83.2711 72.4171 82.1793 72.2713 81.1602 71.6878L80.7235 72.2713ZM80.9419 70.6669L81.233 70.8856C82.1065 71.4691 83.1255 71.6878 84.1446 71.3961C83.1255 71.6149 82.1065 71.3961 81.3058 70.8127L80.9419 70.6669ZM90.4045 61.8426L90.6229 62.0614C90.6956 62.1343 90.7684 62.2073 90.7684 62.2073C90.6956 62.1343 90.5501 61.9885 90.4045 61.8426Z" fill="black"/>
<path d="M55.8295 56.5189C55.9751 58.1962 54.956 59.6548 53.4275 60.2382L52.9179 60.3841V53.0913L53.4275 53.3101C54.8105 53.7477 55.6839 54.9874 55.8295 56.5189ZM53.6458 59.2902C54.5921 58.7067 55.1744 57.6857 55.1016 56.5189C55.0288 55.4979 54.5193 54.6228 53.6458 54.1123V59.2902Z" fill="black"/>
<path d="M52.19 61.3322V51.9974L53.7186 52.6538C55.2472 53.1643 56.4118 54.6228 56.5574 56.446C56.703 58.4151 55.5384 60.1653 53.7186 60.8946L52.19 61.3322ZM54.3737 56.5189V56.8836C54.3737 56.7377 54.3737 56.6648 54.3737 56.5189C54.3737 56.5919 54.3737 56.5189 54.3737 56.5189Z" fill="black"/>
<path d="M42.8002 28.5876L42.6546 28.5147C42.4362 28.4417 42.1451 28.3688 41.8539 28.15L41.7811 28.0771C36.9043 26.5456 32.7553 27.4207 31.1539 27.8583L31.0083 27.9312C23.4382 30.2649 18.1246 37.4118 18.1246 45.3609V49.8095L18.7069 49.7366V50.32L18.998 49.7366C19.0708 49.7366 19.1436 49.7366 19.362 49.6637C19.5076 49.6637 19.5804 49.5907 19.5804 49.5907H20.0899L20.2355 49.1532C20.8178 47.5488 22.3464 47.2571 23.511 47.2571C30.2804 47.6946 37.4866 45.7256 43.3825 41.7875C44.6199 40.9853 46.1485 41.2041 47.1676 42.225C47.5315 42.6626 47.8955 43.0273 48.2594 43.3919C48.6234 43.8295 48.9873 44.1941 49.2785 44.4858C50.9526 46.309 51.6805 47.1112 52.1172 47.6217C52.4084 48.0593 52.554 48.351 52.554 48.7885V49.5178H53.1363C53.4275 49.5907 53.5002 49.5907 53.5002 49.5907L54.3737 49.7366V45.4339C54.3737 38.0682 49.7152 31.2859 42.8002 28.5876Z" fill="black"/>
<path d="M68.6404 49.7367C72.2071 50.9764 76.5745 51.0494 80.2868 49.6637L80.7963 49.4449V52.435L74.5364 60.1653L68.2037 52.3621V49.5179L68.6404 49.7367ZM74.4636 58.9985L79.9956 52.1433V50.4659C76.4289 51.7057 72.3527 51.6328 68.8588 50.5389V52.1433L74.4636 58.9985Z" fill="black"/>
<path d="M74.5364 60.7487L67.8398 52.5078V48.9344L68.786 49.3719C72.4255 50.6117 76.6473 50.6117 80.1412 49.299L81.1603 48.8615V52.5078L74.5364 60.7487ZM74.4636 59.5089L80.4324 52.289V49.9554H80.3596V52.2161L74.4636 59.5089ZM69.2228 51.9973L74.4636 58.415L79.6317 51.9973V50.9764C76.3562 51.9973 72.6439 51.9973 69.2228 51.0493V51.9973Z" fill="black"/>
<path d="M10.1905 111.944C10.1905 110.485 10.6273 109.246 12.0831 109.246C13.5388 109.246 14.0484 110.412 14.0484 111.944V137.833H30.426L26.4226 133.385C25.6219 132.509 25.2579 131.343 25.4035 130.103V130.03L30.4988 99.8378L29.8437 98.8169C28.8974 99.4732 27.7328 99.692 26.6409 99.4003C25.5491 99.1086 24.6028 98.3793 24.0933 97.2854L18.9981 87.0755L7.35174 91.597C7.13337 91.67 0.946268 94.4412 0.946268 101.661V137.833H10.0449V111.944H10.1905ZM24.8212 97.0666C25.2579 97.9417 25.9858 98.5251 26.9321 98.7439C27.8784 98.9627 28.8246 98.8169 29.6253 98.2334L30.2076 97.8688L31.445 99.7649L26.277 130.249C26.1314 131.27 26.4226 132.291 27.0777 132.947L32.1729 138.562H13.3205V111.871C13.3205 110.777 13.1749 109.902 12.0831 109.902C10.9912 109.902 10.9184 110.777 10.9184 111.871V138.562H1.09185C0.65511 138.562 0.363953 138.198 0.363953 137.833V101.734C0.363953 94.0766 6.915 91.1595 7.20616 91.0136L19.4348 86.2733L24.8212 97.0666Z" fill="black"/>
<path d="M32.9736 138.927H12.9565V111.871C12.9565 110.485 12.6654 110.266 12.083 110.266C11.4279 110.266 11.2824 110.558 11.2824 111.871V138.927H1.09184C0.509526 138.927 0 138.416 0 137.833V101.734C0 94.4412 5.82316 91.2323 6.98779 90.7218L19.5804 85.8357L25.1124 96.9207C25.4763 97.7229 26.1314 98.2334 27.0049 98.3792C27.8784 98.598 28.7518 98.4522 29.4069 97.9417L30.2804 97.3583L31.809 99.6919L26.6409 130.322C26.4954 131.27 26.7865 132.145 27.3688 132.728L32.9736 138.927ZM31.2267 138.198H31.2995L26.7865 133.166C26.0586 132.436 25.6947 131.343 25.913 130.176L31.0811 99.8378L30.1348 98.3792L30.062 98.4522L30.9355 99.7649L25.8403 130.103C25.6947 131.27 26.0586 132.364 26.7865 133.166L31.2267 138.198ZM13.6844 138.198V111.944V138.198ZM10.4089 138.198H10.5545V112.308H10.4089V138.198ZM14.4123 137.468H29.6253L26.2042 133.603C25.3307 132.655 24.9668 131.415 25.1124 130.03L30.2076 99.9107L29.8437 99.3273C28.8974 99.9107 27.7328 100.057 26.6409 99.7649C25.4035 99.4002 24.3845 98.598 23.8749 97.4312L18.8525 87.513L7.49731 91.8887C7.42452 91.8887 1.31021 94.5141 1.31021 101.588V137.396H9.681V111.579H9.82658C9.97216 109.245 11.2824 108.881 12.083 108.881C12.9565 108.881 14.4123 109.245 14.4123 111.944V137.468ZM19.2164 86.7108L24.3845 97.0665C24.6028 97.4312 24.8212 97.7958 25.1124 98.0875C24.8212 97.7958 24.6028 97.5041 24.4573 97.1395L19.2164 86.7108Z" fill="black"/>
<path d="M48.8417 85.3253L45.4934 84.0126L40.2526 90.5032L44.6927 93.6391L48.8417 85.3253ZM44.9839 94.6601L39.2335 90.5761L45.275 83.0646L49.8608 84.8148L44.9839 94.6601Z" fill="black"/>
<path d="M45.1295 95.1705L38.724 90.649L45.2022 82.627L50.4431 84.596L45.1295 95.1705ZM40.7621 90.4302L44.5471 93.1285L48.3322 85.5441L45.639 84.4501L40.7621 90.4302ZM39.743 90.5031L45.3478 83.575L49.2785 85.1065L49.3512 85.0336L45.4206 83.5021L39.743 90.5031Z" fill="black"/>
<path d="M36.4675 86.7838L41.9995 79.9286V78.2513C38.4328 79.491 34.2838 79.4181 30.8627 78.3242V79.9286L36.4675 86.7838ZM42.7274 77.1573V80.1474L36.4675 87.9506L30.1348 80.1474V77.3032L30.6444 77.4491C34.1382 78.6888 38.5784 78.7618 42.2907 77.3761L42.7274 77.1573Z" fill="black"/>
<path d="M36.4675 88.5341L29.7709 80.2932V76.8656L30.7171 77.1573C34.2838 78.3971 38.6512 78.3971 42.1451 77.0844L43.0913 76.6469V80.3662L36.4675 88.5341ZM34.9389 85.544L36.4675 87.3672L37.1954 86.4921L36.4675 87.3672L34.9389 85.544ZM31.2267 79.7827L36.4675 86.2004L41.6356 79.7827V78.7618C38.4328 79.7827 34.575 79.7827 31.2267 78.8347V79.7827ZM30.4988 80.0015V77.8137L31.0083 77.9595C34.5022 79.0535 38.5784 79.0535 41.9267 77.8866L42.4362 77.7408C38.7968 79.0535 34.2838 79.1264 30.5716 77.8137V80.0015H30.4988Z" fill="black"/>
<path d="M16.7416 56.7376C16.7416 55.352 17.6878 54.0393 19.1436 53.383L19.6532 53.1642V60.384L19.1436 60.2382C17.6878 59.6547 16.7416 58.2691 16.7416 56.7376ZM17.4695 56.7376C17.4695 57.8316 18.0518 58.7796 18.9253 59.2901V54.331C18.0518 54.9144 17.4695 55.7896 17.4695 56.7376Z" fill="black"/>
<path d="M20.0171 60.8946L19.0708 60.6028C17.4695 59.9465 16.3776 58.415 16.3776 56.7377C16.3776 55.2062 17.3967 53.7477 18.998 53.0184L20.0171 52.5808V60.8946ZM19.2892 59.8736V53.6747V59.8736ZM17.1055 56.7377C17.1055 58.0504 17.9062 59.2901 19.1436 59.8736L18.7069 59.6548C17.7606 58.9984 17.1055 57.9045 17.1055 56.7377ZM18.5613 55.1333C18.1246 55.6438 17.8334 56.2272 17.8334 56.7377C17.8334 57.467 18.1246 58.0504 18.5613 58.5609V55.1333ZM18.7797 53.9664C18.1246 54.404 17.615 54.9145 17.3239 55.5708C17.615 54.9874 18.0518 54.4769 18.7797 53.9664Z" fill="black"/>
<path d="M52.9907 64.2492C55.0288 64.0304 56.9941 62.8636 58.2316 61.1862L58.5955 60.7487L62.8901 69.3541C63.3268 70.2292 64.0547 70.8127 65.001 71.0314C65.9472 71.2502 66.8935 71.1044 67.6214 70.521L68.2037 70.1563L69.4411 72.0524L66.8207 87.3672L46.5853 79.491V74.8966L46.7308 74.7508C48.3322 73.511 49.6424 71.9795 50.6615 70.1563C51.6805 68.4061 52.3356 66.5099 52.6996 64.5409V64.2492H52.9907ZM58.4499 62.1343C57.1397 63.6658 55.32 64.6867 53.3547 64.9785C52.9907 66.9475 52.3356 68.8436 51.3166 70.5939C50.2975 72.3441 48.9145 73.9485 47.3859 75.2612V79.0535L66.2384 86.3462L68.6405 72.1983L67.9853 71.1773C67.0391 71.8336 65.8745 72.0524 64.7826 71.7607C63.618 71.469 62.7445 70.7397 62.1622 69.6458L58.4499 62.1343Z" fill="black"/>
<path d="M67.1119 87.8777L46.2213 79.7828V74.8237L46.4397 74.6049C48.041 73.3651 49.3512 71.8336 50.2975 70.0834C51.2438 68.479 51.8989 66.5829 52.2628 64.6138V64.0304H52.9179C54.8105 63.8116 56.703 62.7177 57.8676 61.1133L58.5955 60.2382L63.1084 69.3541C63.4724 70.1563 64.1275 70.6668 65.001 70.8127C65.8745 71.0314 66.6751 70.8856 67.3302 70.3751L68.2765 69.7917L69.8051 72.1254L67.1119 87.8777ZM61.2887 84.8148L66.6023 86.8567L69.15 72.1254L68.2037 70.6668L67.9126 70.8127C67.767 70.8856 67.6214 71.0314 67.4758 71.1044C67.6214 71.0314 67.6942 70.9585 67.8398 70.8856L68.1309 70.6668L69.0772 72.1254L66.6023 86.8567L61.2887 84.8148ZM47.7499 78.8347L65.9472 85.9087L68.2765 72.3441L67.9126 71.7607C66.9663 72.3441 65.8017 72.49 64.7098 72.1983C63.4724 71.9066 62.5261 71.1044 61.871 69.9375L58.3771 62.8636C57.0669 64.1762 55.4656 65.0514 53.6458 65.416C53.2819 67.3851 52.554 69.2812 51.6077 70.8856C50.6615 72.5629 49.2785 74.1673 47.7499 75.553V78.8347ZM46.9492 79.2723H47.022V75.1154L47.1676 75.0425C48.6961 73.7298 50.0791 72.1254 51.0254 70.448C51.9717 68.8436 52.6268 66.9475 52.9907 64.9785L53.0635 64.6867L53.3547 64.6138C55.2472 64.3221 56.9941 63.374 58.2316 61.9155L58.5955 61.4779L62.5261 69.5C63.0357 70.521 63.8363 71.1773 64.9282 71.3961C65.5833 71.5419 66.3112 71.5419 66.9663 71.3232C66.384 71.5419 65.7289 71.5419 65.001 71.3961C63.9819 71.1773 63.1084 70.521 62.6717 69.5L58.5955 61.405C57.2853 63.1553 55.2472 64.395 53.1363 64.6138C52.7723 66.7287 52.0445 68.6248 51.0254 70.3751C50.0063 72.1983 48.6233 73.8027 47.022 75.0425V79.2723H46.9492Z" fill="black"/>
<path d="M67.6942 65.7078V65.8536H67.4758L66.02 66.8746L61.1431 57.1023L65.7289 55.3521L71.6976 62.8636L67.6942 65.7078ZM62.0894 57.5399L66.2384 65.8536L70.6786 62.7177L65.4377 56.3001L62.0894 57.5399Z" fill="black"/>
<path d="M65.8744 67.3852L60.6336 56.8836L65.8744 54.9146L72.2799 62.9366L68.1309 65.9266V66.2183H67.6942L65.8744 67.3852ZM62.5989 57.7587L66.384 65.3432L70.169 62.6449L65.3649 56.7377L62.5989 57.7587ZM65.5833 55.8626L69.9507 61.2592L65.5833 55.7897L61.6527 57.3212L65.5833 55.8626Z" fill="black"/>
<path d="M112.532 86.7838L118.064 79.9286V78.2513C114.498 79.491 110.422 79.4181 106.928 78.3242V79.9286L112.532 86.7838ZM118.792 80.1474L112.532 87.9506L106.273 80.1474V77.3032L106.782 77.4491C110.349 78.6888 114.716 78.7618 118.356 77.3761L118.865 77.1573L118.792 80.1474Z" fill="black"/>
<path d="M112.532 88.5341L105.909 80.2932V76.8656L106.855 77.1573C110.494 78.3971 114.789 78.3971 118.21 77.0844L119.229 76.6469L119.156 80.2932L112.532 88.5341ZM112.096 86.8567L112.532 87.3672L113.26 86.4921L112.532 87.3672L112.096 86.8567ZM107.292 79.7827L112.532 86.2004L117.701 79.7827V78.7618C114.425 79.7827 110.713 79.7827 107.292 78.8347V79.7827ZM118.428 77.7408V80.0015V77.7408ZM106.637 77.8866L107 78.0325C110.494 79.1264 114.352 79.1264 117.628 78.0325C114.207 79.0535 110.203 78.9805 106.637 77.8866Z" fill="black"/>
<path d="M121.558 84.0126L116.318 90.5031L116.536 90.649C117.555 91.3783 119.884 92.9827 120.758 93.639L124.907 85.3253L121.558 84.0126ZM120.903 94.5142C120.758 94.5142 120.758 94.5142 116.172 91.2324L115.298 90.649L121.34 83.1375L125.926 84.8877L121.122 94.5142H120.903Z" fill="black"/>
<path d="M121.34 94.8789H120.903C120.612 94.8789 120.612 94.8789 115.954 91.5242L114.789 90.722L121.267 82.7L126.508 84.669L121.34 94.8789ZM116.827 90.4303C117.191 90.722 117.701 91.0866 118.283 91.4513C119.084 92.0347 120.03 92.691 120.612 93.1286L124.397 85.5441L121.704 84.4502L116.827 90.4303ZM121.486 83.5751L125.416 85.1066V85.0336L121.486 83.5751Z" fill="black"/>
<path d="M62.3078 34.203C62.3078 40.0372 66.8935 46.0173 74.5364 46.0173C81.0147 46.0173 86.3283 40.6936 86.3283 34.203V22.0241C85.9643 21.6595 85.382 21.0031 84.4358 19.9821L82.7616 18.2319C76.5745 22.0241 69.15 24.0661 62.235 23.8473V34.203H62.3078ZM85.0181 19.4716C86.0371 20.4926 86.6195 21.2219 86.9834 21.5865L87.0562 21.6595V34.1301C87.0562 41.0582 81.4514 46.6736 74.5364 46.6736C66.4568 46.6736 61.5799 40.256 61.5799 34.1301V23.0451H61.9438C68.9316 23.3368 76.5017 21.2948 82.6888 17.4297L82.9072 17.2838L85.0181 19.4716Z" fill="black"/>
<path d="M74.5364 47.0383C66.1656 47.0383 61.2159 40.4749 61.2159 34.1302V22.6805H61.9438C68.8588 22.9722 76.3561 20.9303 82.4704 17.138L82.9072 16.8463L85.2364 19.2529C85.8916 19.9093 86.3283 20.4198 86.6922 20.8573C86.9106 21.0761 87.0562 21.2949 87.2018 21.3678L87.3473 21.5137V34.1302C87.4201 41.2771 81.6698 47.0383 74.5364 47.0383ZM62.5989 33.8384H62.6717V34.2031C62.6717 39.8185 67.1119 45.6527 74.5364 45.6527C80.8691 45.6527 85.9643 40.5478 85.9643 34.2031V22.17C85.746 21.9512 85.4548 21.6595 85.0909 21.222C84.7997 20.9303 84.5086 20.5656 84.1446 20.201L82.6888 18.6695C76.6473 22.3159 69.2956 24.3579 62.5989 24.212V33.8384ZM61.9438 23.4827H62.235C67.9853 23.7015 74.0997 22.243 79.6317 19.5446C74.0997 22.243 67.8398 23.6286 61.9438 23.4827ZM82.8344 17.7944L84.7269 19.7634C85.0909 20.1281 85.382 20.4927 85.6732 20.7844C86.1099 21.222 86.4011 21.5866 86.6194 21.8054L86.6922 21.8783V21.8054C86.5467 21.6595 86.4011 21.5137 86.1827 21.2949C85.8188 20.9303 85.382 20.4198 84.7269 19.7634L82.8344 17.7944Z" fill="black"/>
<path d="M136.844 109.975C135.752 109.975 135.607 110.85 135.607 111.944V138.562H116.827L121.922 132.947C122.577 132.291 122.869 131.27 122.723 130.322L117.555 99.7649L118.792 97.8688L119.375 98.2334C120.175 98.8169 121.122 98.9627 121.995 98.7439C122.941 98.5251 123.669 97.8688 124.106 97.0666L129.492 86.2733L141.721 91.0136C142.012 91.1595 148.563 94.0766 148.563 101.734V137.833C148.563 138.271 148.199 138.562 147.835 138.562H138.009V111.871C138.082 110.85 137.936 109.975 136.844 109.975ZM119.084 98.8898L118.428 99.9108L123.524 130.103C123.524 130.103 123.524 130.176 123.524 130.249C123.669 131.343 123.305 132.582 122.577 133.457L118.574 137.906H134.952V111.944C134.952 110.485 135.388 109.246 136.917 109.246C138.373 109.246 138.882 110.412 138.882 111.944V137.833H147.981V101.734C147.981 94.5141 141.867 91.8158 141.575 91.67L130.002 87.1484L124.907 97.3583C124.397 98.3793 123.451 99.1815 122.359 99.4732C121.122 99.7649 119.957 99.5461 119.084 98.8898Z" fill="black"/>
<path d="M147.835 138.927H137.645V111.871C137.718 111.142 137.645 110.777 137.426 110.558C137.281 110.412 137.135 110.339 136.844 110.339C136.262 110.339 135.971 110.558 135.971 111.944V138.927H116.026L121.704 132.728C122.286 132.145 122.577 131.27 122.432 130.395L117.264 99.692L118.792 97.3583L119.666 97.9417C120.394 98.4522 121.194 98.5981 121.995 98.3793C122.796 98.2334 123.451 97.65 123.888 96.8478L129.42 85.7628L141.939 90.649C143.177 91.2324 149 94.4412 149 101.734V137.833C148.927 138.417 148.418 138.927 147.835 138.927ZM138.373 138.198H147.835H138.518V111.944C138.518 109.537 137.281 109.61 136.844 109.61C137.281 109.61 137.645 109.756 137.936 110.048C138.373 110.558 138.373 111.287 138.373 111.944V138.198ZM117.628 138.198H117.773L122.286 133.239C122.941 132.436 123.305 131.343 123.16 130.322V130.103L118.064 99.8378L119.011 98.3793L118.938 98.3064L117.992 99.7649L123.16 130.176C123.305 131.27 123.014 132.364 122.286 133.093L117.628 138.198ZM119.375 137.541H134.588V111.944C134.588 109.391 135.825 108.881 136.917 108.881C137.79 108.881 139.246 109.246 139.246 111.944V137.468H147.617V101.734C147.617 95.4622 142.886 92.6909 141.43 92.0346L130.148 87.6589L125.198 97.5771C124.616 98.671 123.596 99.5461 122.432 99.9108C121.194 100.202 120.103 100.057 119.156 99.4732L118.792 100.057L123.888 130.103V130.322C124.033 131.488 123.669 132.801 122.869 133.749L119.375 137.541ZM119.739 98.8898C120.467 99.2544 121.34 99.3273 122.213 99.1086C123.16 98.8169 124.033 98.1605 124.543 97.2125L129.711 86.7838L129.565 86.7109L124.324 97.2125C123.815 98.1605 122.941 98.8898 121.995 99.1086C121.267 99.3273 120.467 99.2544 119.739 98.8898Z" fill="black"/>
<path d="M131.167 56.7377C131.167 55.6438 130.584 54.6957 129.711 54.1852V59.2902C130.584 58.7797 131.167 57.8316 131.167 56.7377ZM128.91 60.3841V53.0913L129.42 53.3101C130.875 53.8935 131.894 55.2062 131.894 56.8106C131.894 58.415 130.948 59.7277 129.42 60.3111L128.91 60.3841Z" fill="black"/>
<path d="M128.546 60.8216V52.5078L129.565 52.9454C131.239 53.6017 132.258 55.0603 132.258 56.8105C132.258 58.5608 131.239 60.0194 129.565 60.6757H129.492L128.546 60.8216ZM129.274 53.6747V60.0194H129.347C130.73 59.5089 131.531 58.2691 131.531 56.8835C131.531 56.8835 131.531 56.8835 131.531 56.8105C131.531 57.9774 130.875 59.0713 129.929 59.6547L129.347 59.9464V53.6747H129.274ZM130.075 54.9144V58.5608C130.511 58.0503 130.803 57.4669 130.803 56.7376C130.803 56.0083 130.511 55.4249 130.075 54.9144Z" fill="black"/>
<path d="M100.085 85.3253L104.234 93.639C104.744 93.2744 105.69 92.618 106.709 91.8888L108.602 90.5031L103.361 84.0126L100.085 85.3253ZM103.652 83.1375L109.694 90.649L107.146 92.4722C105.399 93.712 104.38 94.4412 104.307 94.5142L103.943 94.7329L99.0664 84.9606L103.652 83.1375Z" fill="black"/>
<path d="M103.798 95.2435L98.5569 84.7419L103.725 82.7L110.203 90.722L107.364 92.764C106.637 93.2744 104.744 94.6601 104.526 94.8059L104.453 94.8789L103.798 95.2435ZM99.576 85.1795L104.089 94.2225C104.234 94.1496 104.598 93.8579 105.909 92.9098C105.69 93.0557 105.472 93.2745 105.254 93.3474C104.89 93.5662 104.671 93.7849 104.453 93.9308L104.089 94.1496L99.576 85.1795ZM100.595 85.5441L104.38 93.1286C104.526 93.0557 104.671 92.9098 104.89 92.764C105.399 92.3993 105.909 92.0347 106.564 91.5971L108.165 90.4303L103.361 84.4502L100.595 85.5441ZM103.507 83.5751L109.111 90.5761L106.928 92.1805L109.184 90.5761L103.507 83.5751Z" fill="black"/>
<path d="M55.1016 56.5189C55.1744 57.6857 54.5921 58.7067 53.6458 59.2901V54.1852C54.4465 54.6957 55.0288 55.5708 55.1016 56.5189Z" fill="white"/>
</svg>
