<svg width="79" height="79" viewBox="0 0 79 79" fill="none" xmlns="http://www.w3.org/2000/svg">
<path d="M68.3543 0H10.6455C4.76626 0 0 4.76604 0 10.6454V68.3542C0 74.2336 4.76607 78.9996 10.6455 78.9996H39.1072L39.1557 50.7694H31.8215C30.8683 50.7694 30.0947 49.9987 30.0911 49.0456L30.0559 39.9458C30.0522 38.9875 30.8281 38.2087 31.7865 38.2087H39.1074V29.416C39.1074 19.2122 45.3393 13.6561 54.4418 13.6561H61.9112C62.8668 13.6561 63.6418 14.4309 63.6418 15.3867V23.0597C63.6418 24.0151 62.8674 24.7897 61.9121 24.7903L57.3283 24.7924C52.3781 24.7924 51.4195 27.1447 51.4195 30.5968V38.2089H62.2969C63.3333 38.2089 64.1375 39.1139 64.0153 40.1432L62.9368 49.2429C62.8336 50.1137 62.0952 50.7698 61.2184 50.7698H51.468L51.4195 79H68.3547C74.2339 79 79 74.234 79 68.3548V10.6454C78.9998 4.76604 74.2337 0 68.3543 0Z" fill="#475993"/>
</svg>
